<svg xmlns="http://www.w3.org/2000/svg" width="391" height="83" viewBox="0 0 391 83"><style>.st0{fill:#fff}.st1{fill:#2e2e2e}</style><path class="st0" d="M208.6 24.5v13.9c-.5-1.2-1.1-2.3-1.9-3.2-1.9-2.1-4.5-3.1-7.6-3.1h-.2c-1.9 0-3.8.5-5.5 1.5-1.3.8-2.3 1.8-3.2 3l1.4-4.2H182l-2 7.3-2-7.3h-9.6l.9 2.7c-.3-.3-.5-.6-.8-.8-1.7-1.5-4.1-2.2-6.8-2.2h-.2c-1.7 0-3.3.3-4.8.9-1 .4-1.9 1-2.7 1.7v-1.9l-1.4-.4c-.7-.2-1.4-.3-2.2-.3-.7 0-1.6.1-2.5.5v-.1h-8.7v7c-.3-2.1-1.2-3.9-2.7-5.1-1.7-1.5-4.1-2.2-6.8-2.2h-.2c-1.7 0-3.3.3-4.8.9-1.5.6-2.8 1.6-3.8 2.9-.9 1.3-1.4 2.7-1.4 4.2v2h2.3c-1.5 1.3-2.4 3-2.6 5.1H110V25.9h-9.3v29.6h20.5v-2.2c.1.1.3.3.5.4 1.6 1.4 3.6 2.1 5.9 2.1h.3c1.3 0 2.5-.3 3.6-.8l.2.5h16.6V41.6c.2-.2.7-.5 1.8-.5.4 0 .9 0 1.4.1v1h2.2c-1.8 1.4-2.7 3.5-2.7 5.9 0 2.2.9 4.2 2.5 5.6 1.6 1.4 3.6 2.1 5.9 2.1h.3c1.3 0 2.5-.3 3.6-.8l.2.5h8.4v-2.8l-.2-.4c-.2-.4-.5-1.2-.5-3.2V41l4.9 14.5h7.7l4.4-13c0 .5-.1.9-.1 1.4v.5c0 3.4 1.1 6.2 3.2 8.3 2.1 2.1 4.9 3.1 8.2 3.1 1.9 0 3.6-.4 5.1-1.1 1.5-.7 2.8-1.7 3.8-3.1v3.8h9.1v-31h-8.9zm-1.4 23.1h1.3v1.5l-1.3-1.5zM248.8 26.4H226v5.8h8.2V55h6.4V32.2h8.2zM260.8 47.7c-.5.6-1 1.1-1.7 1.5-.6.3-1.3.5-2.2.5h-.1c-1 0-2-.4-2.8-1.2-.5-.6-.9-1.2-1.1-2h12.7v-2.8c0-3.4-.8-6.1-2.4-8-1.7-2-4-3-6.9-3-1.8 0-3.5.5-5 1.5s-2.8 2.4-3.6 4.1c-.8 1.7-1.2 3.6-1.2 5.7v.6c0 3.2 1 5.8 2.8 7.8 1.8 1.9 4.4 3 7.1 3h.3c3.7 0 6.6-1.5 8.4-4.4l.7-1.2-4.2-3.3-.8 1.2zm-6.6-8.5c.6-.6 1.3-.9 2.3-1h.1c.7 0 1.4.3 1.9.8.4.5.7 1.1.8 1.7h-6c.2-.6.5-1.1.9-1.5zM340.9 32.6c-1.9 0-3.7.5-5.3 1.4-1.6 1-2.8 2.4-3.6 4.1-.5 1-.8 2.1-1 3.2V41c0-2.3-1-4.5-2.8-6.1-1.7-1.5-3.8-2.3-6.3-2.3h-.2c-1.8 0-3.5.5-5.1 1.4-1.5 1-2.7 2.4-3.5 4-.8 1.6-1.2 3.5-1.2 5.6v.5c0 3.4.9 6.1 2.7 8.1 1.8 2 4.3 3.1 7.3 3.1h.1c3 0 5.8-1.4 7.6-3.8.8-1.1 1.3-2.5 1.4-3.9v-.7c.4 2 1.2 3.8 2.5 5.2 1.8 2 4.4 3.2 7.1 3.2h.6c3.7 0 7.1-2.2 8.7-5.5.8-1.7 1.2-3.6 1.2-5.6V44c0-3.3-.9-6.1-2.8-8.1-1.9-2.2-4.4-3.3-7.4-3.3zM325 46l-.1 1.4c-.1.6-.4 1.2-.9 1.6-.6.5-1.3.7-2.1.7v1.4l-.1-1.4h-.2c-.9 0-1.9-.4-2.4-1.2-.7-.9-1-2.3-1-4.1v-.6c0-1.9.4-3.3 1-4.2.6-.8 1.5-1.2 2.7-1.2h.1c.7 0 1.4.3 2 .8.6.5.9 1.2.9 2l.1 1.4h5.8V44c0 .7 0 1.3.1 2H325zm18.7 2.3c-.7.9-1.6 1.3-2.7 1.3h-.1c-1 0-2-.5-2.6-1.3-.8-1-1.2-2.4-1.2-4.2 0-2 .4-3.6 1.2-4.6.7-.9 1.6-1.3 2.7-1.3h.1c1 0 2 .5 2.6 1.4.8 1 1.2 2.4 1.2 4.2-.1 2-.4 3.5-1.2 4.5zM266.7 25h6.2v30h-6.2zM362.4 32.6h-.4c-1.4 0-2.7.3-3.9 1V33h-5.9v29.3h6.2v-7.7c1.1.5 2.5.8 3.9.8h.2c2.5 0 4.9-1.2 6.4-3.3 1.5-2 2.3-4.7 2.3-7.9v-.3c0-3.4-.8-6.1-2.3-8.1-1.6-2.1-3.8-3.2-6.5-3.2zm1.5 15.9c-.5.8-1.4 1.2-2.4 1.2h-.2c-1.1 0-2.2-.6-2.8-1.5v-8.3c.7-1.1 1.6-1.5 3-1.5h.1c.9 0 1.8.5 2.4 1.3.7 1 1.1 2.4 1.1 4.2-.1 2-.5 3.6-1.2 4.6zM386.7 46.5l-.9 1.2c-.5.6-1.1 1.1-1.7 1.5-.6.3-1.3.5-2.2.5h-.1c-1 0-2-.4-2.7-1.2-.5-.6-.9-1.2-1.1-2h12.7v-2.8c0-3.4-.8-6.1-2.4-8-1.7-2-4-3-6.9-3-1.8 0-3.5.5-5 1.5s-2.8 2.4-3.5 4.1c-.8 1.7-1.2 3.6-1.2 5.7v.6c0 3.2 1 5.8 2.8 7.8 1.8 1.9 4.4 3 7.1 3h.3c3.7 0 6.5-1.5 8.4-4.3l.8-1.2-4.4-3.4zm-5.3-8.2h.1c.7 0 1.4.3 1.9.8.4.5.7 1.1.8 1.7h-6c.2-.6.5-1.1.9-1.5.7-.7 1.4-1 2.3-1M307.8 42.5c-.7-.3-1.4-.6-2.3-.9h5.9v-1.5c0-2.1-.9-4.2-2.6-5.5-1.6-1.3-3.7-2-6.1-2h-.4c-2 0-4 .7-5.7 2-1.7 1.3-2.5 3.1-2.5 5.1 0 1.2.3 2.3 1 3.4.7 1 1.6 1.7 2.7 2.2 1.4.6 2.8 1.1 4.2 1.4 1.9.4 2.6.8 2.9 1 .2.2.4.5.4.8 0 .3-.1.5-.4.7-.5.3-1.2.5-2.1.5-1 0-1.8-.2-2.3-.6-.5-.4-.7-.8-.7-1.5l-.1-1.4h-6.1v-2.6c0-3.4-.8-6.1-2.4-8-1.7-2-4-3-6.9-3-1.8 0-3.5.5-5 1.5s-2.8 2.4-3.6 4.1c-.8 1.7-1.2 3.6-1.2 5.7v.6c0 3.2 1 5.8 2.8 7.8 1.8 1.9 4.4 3 7.1 3h.3c3.7 0 6.5-1.5 8.4-4.3l.8-1.2-4.2-3.3-.9 1.2c-.5.6-1.1 1.1-1.7 1.5-.6.3-1.3.5-2.2.5h-.1c-1 0-2-.4-2.8-1.2-.5-.6-.9-1.2-1.1-2h12.7v1.2c0 1.4.4 2.8 1.3 4 .8 1.2 2 2.2 3.4 2.8 1.4.6 2.9.9 4.4.9H303.3c2.1 0 4.1-.6 5.8-1.8 1.7-1.3 2.6-3.1 2.6-5.3 0-1.3-.3-2.5-1-3.5-.8-1-1.7-1.7-2.9-2.3zm-2.7-1c-.5-.1-1.1-.3-1.6-.4-1.9-.4-2.6-.8-2.9-.9-.1-.1-.2-.2-.2-.5 0-.4.1-.6.4-.8.4-.3 1-.5 1.9-.5h.2c.6 0 1.3.2 1.7.6.5.5.6.9.6 1.2v1.3zm-24-.8c.2-.6.5-1.1.9-1.5.6-.6 1.3-.9 2.3-1h.1c.7 0 1.4.3 1.9.8.4.5.7 1.1.8 1.7h-6z"/><path class="st1" d="M247.3 30.7h-8.2v22.8h-3.4V30.7h-8.2v-2.8h19.8v2.8zm9.5 23.1c-2.4.1-4.7-.8-6.3-2.5-1.6-1.7-2.4-4-2.4-6.8v-.6c0-1.9.4-3.6 1.1-5 .7-1.4 1.7-2.6 3-3.5 1.2-.8 2.7-1.3 4.2-1.3 2.5 0 4.4.8 5.8 2.4 1.4 1.6 2.1 4 2.1 7v1.3h-12.9c0 1.9.6 3.4 1.6 4.5s2.5 1.8 4 1.7c1.2 0 2.1-.2 2.9-.7.8-.5 1.5-1.1 2.1-1.9l2 1.5c-1.7 2.7-4.1 3.9-7.2 3.9zm-.4-17c-1.3 0-2.4.5-3.3 1.4-.9 1-1.4 2.3-1.7 4h9.5V42c0-1.4-.5-2.7-1.3-3.8-.8-1-2-1.5-3.2-1.4zm15.1 16.7h-3.2v-27h3.2v27zm13.1.3c-2.4.1-4.7-.8-6.3-2.5-1.6-1.7-2.4-4-2.4-6.8v-.6c0-1.9.4-3.6 1.1-5 .7-1.4 1.7-2.6 3-3.5 1.2-.8 2.7-1.3 4.2-1.3 2.5 0 4.4.8 5.8 2.4 1.4 1.6 2.1 4 2.1 7v1.3h-12.9c0 1.9.6 3.4 1.6 4.5s2.5 1.8 4 1.7c1.1 0 2.1-.2 2.9-.7.8-.5 1.5-1.1 2.1-1.9l2 1.5c-1.7 2.7-4 3.9-7.2 3.9zm-.4-17c-1.3 0-2.4.5-3.3 1.4-.9 1-1.5 2.3-1.7 4h9.5V42c0-1.4-.5-2.7-1.3-3.8-.8-1-2-1.5-3.2-1.4zm22.6 11.7c0-.8-.3-1.6-1-2-.7-.5-1.8-.9-3.5-1.3-1.4-.3-2.7-.7-3.9-1.3-.9-.4-1.6-1-2.1-1.8-.5-.7-.7-1.6-.7-2.4 0-1.6.7-2.9 2-4 1.4-1.1 3.2-1.7 5-1.6 2.2 0 3.9.6 5.2 1.7 1.3 1 2 2.6 2 4.3h-3.3c0-.9-.4-1.7-1.1-2.3-.8-.7-1.8-1-2.9-1-1.2 0-2.1.3-2.8.8-.7.5-1 1.2-1 2s.3 1.4.9 1.8 1.8.8 3.4 1.1c1.6.4 2.9.8 4 1.3 1 .5 1.8 1.1 2.2 1.8.5.7.7 1.6.7 2.6 0 1.7-.7 3.1-2 4.1-1.5 1.1-3.4 1.6-5.3 1.5-1.4 0-2.8-.2-4-.8-1.1-.5-2.1-1.3-2.8-2.3-.7-1-1-2-1-3.1h3.3c.1 1.1.5 2 1.3 2.6.8.6 1.9 1 3.2 1 1.2 0 2.2-.2 3-.8.8-.4 1.2-1.1 1.2-1.9zm15.1 2.7c1.2 0 2.2-.3 3-1.1.8-.6 1.4-1.6 1.4-2.6h3.1c-.1 1.1-.5 2.2-1.1 3.1-1.5 2-3.9 3.2-6.4 3.2-2.6 0-4.7-.8-6.2-2.6-1.5-1.7-2.3-4.1-2.3-7.1v-.5c0-1.8.4-3.5 1-4.9.6-1.4 1.6-2.6 2.9-3.4 1.4-.8 2.9-1.2 4.5-1.2 2.1 0 3.9.7 5.3 1.9 1.4 1.3 2.2 3.1 2.3 5h-3.1c-.1-1.2-.6-2.2-1.4-3-.8-.8-1.9-1.2-3.1-1.2-1.6 0-2.9.6-3.8 1.8-.9 1.2-1.4 2.9-1.4 5.2v.6c0 2.2.5 3.9 1.4 5.1 1 1.1 2.4 1.8 3.9 1.7zm10.4-7.4c0-1.9.4-3.5 1.1-5 .7-1.4 1.7-2.6 3-3.5 1.3-.8 2.8-1.2 4.5-1.2 2.6 0 4.7.9 6.3 2.7 1.6 1.8 2.4 4.2 2.4 7.2v.2c0 1.8-.4 3.5-1.1 5-1.4 2.9-4.4 4.8-7.6 4.7-2.4.1-4.7-.9-6.3-2.7-1.6-1.8-2.4-4.2-2.4-7.1l.1-.3zm3.3.4c0 2.1.5 3.8 1.5 5.1.9 1.2 2.4 2 3.9 1.9 1.6 0 3-.7 3.9-2 1-1.3 1.5-3.1 1.5-5.4 0-2.1-.5-3.8-1.5-5.1-.9-1.3-2.4-2-3.9-1.9-1.6 0-2.9.6-3.9 1.9-1.1 1.3-1.6 3.1-1.5 5.5zm34.2 0c0 2.9-.7 5.2-2 7-1.2 1.7-3.3 2.7-5.4 2.7-2.3 0-4.1-.7-5.5-2.2v9.2h-3.2V34.5h3l.2 2.1c1.3-1.7 3.4-2.6 5.5-2.5 2.3 0 4.1.9 5.4 2.6 1.3 1.7 2 4.1 2 7.2v.3zm-3.3-.4c0-2.1-.5-3.8-1.4-5.1-.9-1.2-2.3-1.9-3.8-1.9-2 0-3.5.9-4.4 2.6v9.1c.9 1.7 2.6 2.7 4.5 2.6 1.5 0 2.9-.7 3.7-1.9.9-1.1 1.4-2.9 1.4-5.4zm15.3 10c-2.4.1-4.7-.8-6.3-2.5-1.6-1.7-2.4-4-2.4-6.8v-.6c0-1.9.4-3.6 1.1-5 .7-1.4 1.7-2.6 3-3.5 1.2-.8 2.7-1.3 4.2-1.3 2.5 0 4.4.8 5.8 2.4 1.4 1.6 2.1 4 2.1 7v1.3h-12.9c0 1.9.6 3.4 1.6 4.5s2.5 1.8 4 1.7c1.1 0 2.1-.2 2.9-.7.8-.5 1.5-1.1 2.1-1.9l2 1.5c-1.7 2.7-4 3.9-7.2 3.9zm-.4-17c-1.3 0-2.4.5-3.3 1.4-.9 1-1.4 2.3-1.6 4h9.5V42c0-1.4-.5-2.7-1.3-3.8-.9-1-2.1-1.5-3.3-1.4z"/><path class="st0" d="M41.5 83C30.4 83 20 78.7 12.2 70.8 4.3 63 0 52.6 0 41.5c0-10.9 4.4-21.6 12.2-29.3C20 4.3 30.4 0 41.5 0 52.6 0 63 4.3 70.8 12.2 78.7 20 83 30.4 83 41.5c0 11.1-4.3 21.5-12.2 29.3C63 78.7 52.6 83 41.5 83zm14-26c-1.4 0-2.5 1.1-2.5 2.5s1.1 2.5 2.5 2.5 2.5-1.1 2.5-2.5-1.1-2.5-2.5-2.5zm-34-4c-.3 0-.5.2-.5.5s.2.5.5.5h2c3 0 5.5 2.5 5.5 5.5v2c0 .3.2.5.5.5s.5-.2.5-.5v-2c0-3 2.5-5.5 5.5-5.5h2c.3 0 .5-.2.5-.5s-.2-.5-.5-.5h-2c-3 0-5.5-2.5-5.5-5.5v-2c0-.3-.2-.5-.5-.5s-.5.2-.5.5v2c0 3-2.5 5.5-5.5 5.5h-2zm17-24c-.8 0-1.5.7-1.5 1.5s.7 1.5 1.5 1.5h3c4.1 0 7.5 3.4 7.5 7.5v3c0 .8.7 1.5 1.5 1.5s1.5-.7 1.5-1.5v-3c0-4.1 3.4-7.5 7.5-7.5h3c.8 0 1.5-.7 1.5-1.5s-.7-1.5-1.5-1.5h-3c-4.1 0-7.5-3.4-7.5-7.5v-3c0-.8-.7-1.5-1.5-1.5s-1.5.7-1.5 1.5v3c0 4.1-3.4 7.5-7.5 7.5h-3zm-16-4c-.8 0-1.5.7-1.5 1.5s.7 1.5 1.5 1.5 1.5-.7 1.5-1.5-.7-1.5-1.5-1.5z"/><path d="M1.5 41.5c0-10.6 4.2-20.8 11.7-28.3 15.6-15.6 40.9-15.6 56.6 0s15.6 40.9 0 56.6-40.9 15.6-56.6 0C5.7 62.3 1.5 52.1 1.5 41.5zm34 10c-2.2 0-4-1.8-4-4v-2c0-1.1-.9-2-2-2s-2 .9-2 2v2c0 2.2-1.8 4-4 4h-2c-1.1 0-2 .9-2 2s.9 2 2 2h2c2.2 0 4 1.8 4 4v2c0 1.1.9 2 2 2s2-.9 2-2v-2c0-2.2 1.8-4 4-4h2c1.1 0 2-.9 2-2s-.9-2-2-2h-2zm24-24c-3.3 0-6-2.7-6-6v-3c0-1.7-1.3-3-3-3s-3 1.3-3 3v3c0 3.3-2.7 6-6 6h-3c-1.7 0-3 1.3-3 3s1.3 3 3 3h3c3.3 0 6 2.7 6 6v3c0 1.7 1.3 3 3 3s3-1.3 3-3v-3c0-3.3 2.7-6 6-6h3c1.7 0 3-1.3 3-3s-1.3-3-3-3h-3zm-4 36c2.2 0 4-1.8 4-4s-1.8-4-4-4-4 1.8-4 4 1.8 4 4 4zm-33-34c1.7 0 3-1.3 3-3s-1.3-3-3-3-3 1.3-3 3 1.3 3 3 3z" fill="#4040c8"/><path class="st1" d="M108.1 49.3h11.2v4.2h-16.5V27.9h5.3zM137.3 49.1v-8.2c0-2.1-.7-3.8-2.1-5-1.4-1.2-3.2-1.8-5.6-1.8-1.4 0-2.9.2-4.2.8-1.1.5-2.1 1.2-2.9 2.2-.7.9-1 2-1 3.1h5.1c0-.7.2-1.3.7-1.7.5-.4 1.2-.6 2-.6 1 0 1.7.3 2.1.8.5.5.7 1.2.7 2.1v1.1h-2.3c-2.8 0-5 .6-6.5 1.6-1.5 1.1-2.2 2.6-2.2 4.6 0 1.6.6 3.1 1.8 4.1 1.2 1.1 2.8 1.6 4.6 1.6 1.8.1 3.6-.7 4.8-2 .1.6.2 1.2.5 1.7h5.1v-.3c-.3-.9-.5-2.3-.6-4.1zm-5.1-1c-.3.6-.8 1-1.4 1.3-.6.3-1.3.5-2.1.5-.7 0-1.3-.2-1.8-.6-.5-.4-.7-.9-.7-1.6v-.3c.2-1.8 1.5-2.6 4.1-2.6h1.9v3.3zM151.9 39.2c-.7-.1-1.3-.1-1.8-.1-1.9 0-3.2.7-3.8 2v12.4h-5.1v-19h4.8l.1 2.3c1-1.8 2.4-2.6 4.2-2.6.6 0 1.1.1 1.6.2v4.8zM169.3 49.1v-8.2c0-2.1-.7-3.8-2.1-5-1.4-1.2-3.2-1.8-5.6-1.8-1.4 0-2.9.3-4.2.8-1.1.5-2.1 1.2-2.9 2.2-.7.9-1 2-1 3.1h5.1c0-.7.2-1.3.7-1.7.5-.4 1.1-.6 2-.6 1 0 1.7.3 2.1.8.4.5.7 1.2.7 2.1v1.1h-2.3c-2.8 0-5 .6-6.5 1.6-1.5 1.1-2.2 2.6-2.2 4.6 0 1.6.6 3.1 1.8 4.1 1.2 1.1 2.8 1.6 4.6 1.6 1.8.1 3.6-.7 4.8-2 .1.6.2 1.2.5 1.7h5.1v-.3c-.4-.9-.6-2.3-.6-4.1zm-5.1-1c-.3.6-.8 1-1.4 1.3-.6.3-1.3.5-2.1.5-.7 0-1.3-.2-1.8-.6-.4-.4-.7-.9-.7-1.6v-.3c.2-1.8 1.5-2.6 4.1-2.6h1.9v3.3zM180 47.3l3.5-12.8h5.3l-6.3 19h-4.9l-6.4-19h5.3l3.5 12.8zM207.4 43.6c0-3-.7-5.3-2.2-7-1.5-1.6-3.5-2.5-6.1-2.5-1.6 0-3.2.4-4.6 1.2-1.4.8-2.5 2-3.1 3.5-.7 1.5-1.1 3.2-1.1 5.1v.5c0 2.8.9 5.1 2.6 6.8 1.8 1.7 4 2.6 6.8 2.6 1.6 0 3-.3 4.3-.9 1.2-.5 2.3-1.4 3.1-2.5l-2.5-2.8c-1.1 1.4-2.6 2.1-4.6 2.1-1.2 0-2.3-.4-3.1-1.1-.8-.8-1.4-1.9-1.5-3h12.1v-2zm-5-1.4h-7.1c.1-1.1.5-2.1 1.2-2.9.6-.7 1.5-1 2.5-1 1.1 0 1.9.3 2.5.9.6.6.9 1.5.9 2.6v.4zM210.6 26.5h5.1v27h-5.1z"/></svg>