<svg xmlns="http://www.w3.org/2000/svg" viewBox="0 0 388 80" width="388" height="80">
    <g>
        <path fill="#2E2E2E" d="M106.56 47.76h11.2V52h-16.47V26.4h5.27v21.36zm24.9 4.24a5.64 5.64 0 0 1-.5-1.7 6.15 6.15 0 0 1-4.8 2.05c-1.87 0-3.4-.54-4.63-1.62a5.2 5.2 0 0 1-1.84-4.07c0-2.02.75-3.57 2.24-4.64 1.5-1.08 3.65-1.63 6.48-1.64h2.34V39.3c0-.88-.23-1.58-.68-2.1-.45-.54-1.16-.8-2.14-.8-.85 0-1.52.2-2 .62-.5.4-.74.97-.74 1.68h-5.08c0-1.1.34-2.12 1.02-3.06a6.74 6.74 0 0 1 2.88-2.2 10.5 10.5 0 0 1 4.19-.8c2.34 0 4.2.59 5.58 1.77 1.38 1.17 2.06 2.83 2.06 4.96v8.25c.02 1.8.27 3.17.76 4.1V52h-5.13zm-4.2-3.53c.76 0 1.45-.17 2.08-.5.63-.34 1.1-.79 1.4-1.35v-3.27h-1.9c-2.54 0-3.89.88-4.05 2.64l-.02.3c0 .63.22 1.15.67 1.56a2.6 2.6 0 0 0 1.83.62zm23.17-10.73c-.69-.09-1.3-.14-1.82-.14-1.93 0-3.19.65-3.78 1.95V52h-5.08V32.98h4.8l.14 2.27c1.02-1.75 2.43-2.62 4.23-2.62.56 0 1.1.08 1.58.23l-.07 4.88zM163.37 52a5.64 5.64 0 0 1-.5-1.7 6.15 6.15 0 0 1-4.8 2.05c-1.87 0-3.41-.54-4.64-1.62a5.2 5.2 0 0 1-1.84-4.07c0-2.02.75-3.57 2.24-4.64 1.5-1.08 3.66-1.63 6.48-1.64h2.34V39.3c0-.88-.23-1.58-.68-2.1-.45-.54-1.16-.8-2.13-.8-.86 0-1.53.2-2.01.62-.5.4-.73.97-.73 1.68h-5.08c0-1.1.34-2.12 1.02-3.06a6.74 6.74 0 0 1 2.88-2.2 10.5 10.5 0 0 1 4.18-.8c2.35 0 4.2.59 5.58 1.77 1.38 1.17 2.07 2.83 2.07 4.96v8.25c.01 1.8.26 3.17.75 4.1V52h-5.13zm-4.2-3.53c.75 0 1.44-.17 2.07-.5.64-.34 1.1-.79 1.41-1.35v-3.27h-1.9c-2.54 0-3.9.88-4.06 2.64l-.02.3c0 .63.23 1.15.67 1.56a2.6 2.6 0 0 0 1.83.62zm19.34-2.68l3.53-12.81h5.3L180.95 52h-4.86l-6.42-19.02h5.31l3.54 12.81zm19.6 6.56c-2.8 0-5.06-.85-6.82-2.56-1.75-1.72-2.62-4-2.62-6.84v-.5c0-1.9.37-3.61 1.1-5.12a8.13 8.13 0 0 1 3.14-3.48 8.8 8.8 0 0 1 4.63-1.22c2.6 0 4.65.82 6.15 2.46 1.5 1.64 2.24 3.97 2.24 6.98v2.07h-12.11a4.72 4.72 0 0 0 1.48 3 4.49 4.49 0 0 0 3.14 1.12c1.96 0 3.49-.71 4.59-2.13l2.5 2.8a7.63 7.63 0 0 1-3.1 2.52c-1.3.6-2.74.9-4.32.9zm-.58-15.6c-1.01 0-1.83.33-2.46 1.01a5.27 5.27 0 0 0-1.2 2.92h7.07v-.4c-.03-1.13-.33-2-.92-2.61-.58-.62-1.42-.93-2.5-.93zM214.17 52h-5.1V25h5.1v27zm31.64-22.82h-8.22V52h-3.36V29.18h-8.21v-2.77h19.8v2.77zm9.44 23.17a8.31 8.31 0 0 1-6.3-2.54c-1.6-1.7-2.42-3.96-2.42-6.8v-.59c0-1.89.36-3.57 1.08-5.05a8.43 8.43 0 0 1 3.03-3.48 7.6 7.6 0 0 1 4.2-1.26c2.48 0 4.4.81 5.77 2.44 1.37 1.63 2.06 3.96 2.06 7v1.35h-12.88c.04 1.88.59 3.4 1.64 4.55a5.17 5.17 0 0 0 4 1.73c1.15 0 2.12-.24 2.92-.7.8-.47 1.49-1.1 2.09-1.87l1.98 1.55c-1.59 2.45-3.98 3.67-7.17 3.67zm-.4-17.05c-1.31 0-2.42.48-3.3 1.43-.9.96-1.45 2.3-1.66 4.02h9.53v-.25a6.2 6.2 0 0 0-1.34-3.84 4.08 4.08 0 0 0-3.23-1.36zM269.96 52h-3.25V25h3.25v27zm13.1.35a8.31 8.31 0 0 1-6.3-2.54c-1.61-1.7-2.42-3.96-2.42-6.8v-.59c0-1.89.36-3.57 1.08-5.05a8.43 8.43 0 0 1 3.03-3.48 7.6 7.6 0 0 1 4.2-1.26c2.48 0 4.4.81 5.77 2.44 1.37 1.63 2.06 3.96 2.06 7v1.35h-12.89c.05 1.88.6 3.4 1.65 4.55a5.17 5.17 0 0 0 4 1.73c1.14 0 2.12-.24 2.91-.7.8-.47 1.5-1.1 2.1-1.87l1.98 1.55c-1.6 2.45-3.98 3.67-7.17 3.67zm-.4-17.05c-1.32 0-2.42.48-3.3 1.43-.9.96-1.45 2.3-1.66 4.02h9.53v-.25a6.2 6.2 0 0 0-1.34-3.84 4.08 4.08 0 0 0-3.23-1.36zm22.65 11.66a2.4 2.4 0 0 0-.99-2.05c-.66-.49-1.82-.9-3.46-1.26a16.37 16.37 0 0 1-3.92-1.27 5.58 5.58 0 0 1-2.15-1.75 4.2 4.2 0 0 1-.69-2.43c0-1.56.66-2.88 1.98-3.95a7.72 7.72 0 0 1 5.05-1.62c2.16 0 3.9.56 5.25 1.67a5.3 5.3 0 0 1 2.01 4.27h-3.27c0-.89-.38-1.66-1.13-2.3a4.25 4.25 0 0 0-2.86-.97c-1.18 0-2.1.26-2.78.77-.66.52-1 1.2-1 2.03 0 .78.31 1.37.93 1.77.62.4 1.75.78 3.37 1.14 1.62.37 2.94.8 3.95 1.3 1 .5 1.75 1.11 2.24 1.82.48.71.73 1.58.73 2.6 0 1.7-.68 3.06-2.04 4.08a8.55 8.55 0 0 1-5.3 1.54 9.58 9.58 0 0 1-4.04-.8 6.58 6.58 0 0 1-2.75-2.27c-.66-.96-1-2-1-3.13h3.26c.06 1.09.5 1.95 1.31 2.59.82.64 1.89.96 3.23.96 1.23 0 2.21-.25 2.96-.75a2.3 2.3 0 0 0 1.11-2zm15.12 2.74c1.16 0 2.18-.35 3.04-1.06a3.71 3.71 0 0 0 1.44-2.63H328a5.9 5.9 0 0 1-1.12 3.1 7.99 7.99 0 0 1-6.43 3.23c-2.6.01-4.66-.85-6.19-2.58-1.53-1.73-2.3-4.1-2.3-7.1v-.54c0-1.85.35-3.5 1.03-4.94a7.77 7.77 0 0 1 2.93-3.36 8.31 8.31 0 0 1 4.5-1.2c2.14 0 3.9.65 5.32 1.92a6.85 6.85 0 0 1 2.26 4.98h-3.08a4.48 4.48 0 0 0-1.4-3.03 4.35 4.35 0 0 0-3.1-1.19c-1.65 0-2.93.6-3.84 1.78-.9 1.2-1.36 2.91-1.36 5.16v.62c0 2.2.45 3.88 1.35 5.06a4.57 4.57 0 0 0 3.87 1.78zm10.36-7.39c0-1.86.36-3.53 1.1-5.02a8.2 8.2 0 0 1 3.05-3.45c1.3-.8 2.8-1.21 4.48-1.21 2.59 0 4.68.9 6.28 2.69 1.6 1.8 2.4 4.18 2.4 7.15v.23c0 1.85-.35 3.51-1.06 4.98a8.08 8.08 0 0 1-7.59 4.67 8 8 0 0 1-6.27-2.69c-1.6-1.8-2.4-4.16-2.4-7.12v-.23zm3.26.4c0 2.1.5 3.8 1.47 5.07a4.7 4.7 0 0 0 3.93 1.92c1.65 0 2.97-.65 3.94-1.95.97-1.29 1.46-3.1 1.46-5.44 0-2.08-.5-3.77-1.49-5.07a4.72 4.72 0 0 0-3.94-1.94c-1.6 0-2.9.64-3.89 1.92-.98 1.27-1.48 3.1-1.48 5.48zm34.2 0c0 2.89-.67 5.22-2 6.99a6.37 6.37 0 0 1-5.37 2.65c-2.31 0-4.13-.73-5.45-2.2v9.16h-3.25V32.98h2.97l.16 2.11a6.7 6.7 0 0 1 5.52-2.46c2.28 0 4.09.86 5.42 2.58 1.33 1.73 2 4.12 2 7.2v.3zm-3.26-.38c0-2.14-.45-3.84-1.37-5.08a4.42 4.42 0 0 0-3.76-1.86c-1.97 0-3.45.87-4.43 2.62v9.09a4.79 4.79 0 0 0 4.46 2.6 4.4 4.4 0 0 0 3.72-1.86c.92-1.23 1.38-3.07 1.38-5.5zm15.28 10.02a8.31 8.31 0 0 1-6.3-2.54c-1.61-1.7-2.42-3.96-2.42-6.8v-.59c0-1.89.36-3.57 1.08-5.05a8.43 8.43 0 0 1 3.02-3.48 7.6 7.6 0 0 1 4.21-1.26c2.48 0 4.4.81 5.77 2.44 1.37 1.63 2.06 3.96 2.06 7v1.35H374.8c.05 1.88.6 3.4 1.64 4.55a5.17 5.17 0 0 0 4 1.73c1.15 0 2.12-.24 2.92-.7.8-.47 1.5-1.1 2.1-1.87l1.98 1.55c-1.6 2.45-3.98 3.67-7.17 3.67zm-.4-17.05c-1.32 0-2.42.48-3.31 1.43-.9.96-1.44 2.3-1.65 4.02h9.52v-.25a6.2 6.2 0 0 0-1.33-3.84 4.08 4.08 0 0 0-3.24-1.36z"/>
        <path fill="#4040C8" fill-rule="nonzero" d="M0 40a39.87 39.87 0 0 1 11.72-28.28A40 40 0 1 1 0 40zm34 10a4 4 0 0 1-4-4v-2a2 2 0 1 0-4 0v2a4 4 0 0 1-4 4h-2a2 2 0 1 0 0 4h2a4 4 0 0 1 4 4v2a2 2 0 1 0 4 0v-2a4 4 0 0 1 4-4h2a2 2 0 1 0 0-4h-2zm24-24a6 6 0 0 1-6-6v-3a3 3 0 0 0-6 0v3a6 6 0 0 1-6 6h-3a3 3 0 0 0 0 6h3a6 6 0 0 1 6 6v3a3 3 0 0 0 6 0v-3a6 6 0 0 1 6-6h3a3 3 0 0 0 0-6h-3zm-4 36a4 4 0 1 0 0-8 4 4 0 0 0 0 8zM21 28a3 3 0 1 0 0-6 3 3 0 0 0 0 6z"/>
    </g>
</svg>
